<?xml version="1.0" encoding="utf-8"?>
<!-- Generator: Adobe Illustrator 16.0.3, SVG Export Plug-In . SVG Version: 6.00 Build 0)  -->
<!DOCTYPE svg PUBLIC "-//W3C//DTD SVG 1.1//EN" "http://www.w3.org/Graphics/SVG/1.1/DTD/svg11.dtd">
<svg version="1.1" id="Capa_1" xmlns="http://www.w3.org/2000/svg" xmlns:xlink="http://www.w3.org/1999/xlink" x="0px" y="0px"
	 width="500px" height="200px" viewBox="0 0 500 200" enable-background="new 0 0 500 200" xml:space="preserve">
<path fill="#FFFFFF" d="M278.193,131.389l-65.981-68.608l23.257-24.187l42.724,44.254L386.895-30.189l23.259,24.357
	 M311.183-108.747c9.109,0,16.496,7.68,16.496,17.152c0,9.474-7.387,17.152-16.496,17.152s-16.495-7.679-16.495-17.152
	C294.688-101.067,302.073-108.747,311.183-108.747 M426.65-108.747h-68.953c-6.926-19.897-25.07-34.305-46.515-34.305
	s-39.59,14.408-46.516,34.305h-68.951c-18.22,0-32.991,15.359-32.991,34.305v240.14c0,18.942,14.771,34.303,32.991,34.303H426.65
	c18.22,0,32.99-15.36,32.99-34.303v-240.14C459.641-93.388,444.87-108.747,426.65-108.747z"/>
</svg>
